<svg width="30" height="30" viewBox="0 0 30 30" fill="none" xmlns="http://www.w3.org/2000/svg">
<g clip-path="url(#clip0_683_440)">
<path d="M12.1875 25.0012C12.1867 24.2451 12.4354 23.5098 12.8949 22.9093C13.3545 22.3088 13.9993 21.8767 14.7294 21.6799C15.4595 21.4831 16.2341 21.5326 16.9333 21.8208C17.6324 22.1089 18.2169 22.6196 18.5963 23.2738C21.2087 22.1213 22.1875 20.3125 22.1875 16.875V13.125C22.1875 8.135 19.3738 4.6875 15 4.6875C10.6263 4.6875 7.8125 8.13625 7.8125 13.125V17.5C7.81217 17.7485 7.71329 17.9868 7.53755 18.1625C7.3618 18.3383 7.12354 18.4372 6.875 18.4375H5.625C4.71384 18.4365 3.84026 18.0742 3.19586 17.43C2.55145 16.7859 2.18882 15.9124 2.1875 15.0013L2.1875 13.7513C2.18849 12.8398 2.55093 11.9659 3.19534 11.3212C3.83975 10.6766 4.71351 10.3138 5.625 10.3125H6.2225C7.16875 5.84875 10.4075 2.8125 15 2.8125C19.5925 2.8125 22.83 5.84875 23.7762 10.3125H24.3738C25.285 10.3138 26.1586 10.6764 26.803 11.3208C27.4473 11.9652 27.8099 12.8387 27.8113 13.75V15C27.8103 15.9114 27.4478 16.7851 26.8033 17.4296C26.1589 18.074 25.2851 18.4365 24.3738 18.4375H23.9875C23.9393 19.918 23.4425 21.349 22.5631 22.5409C21.6836 23.7329 20.4629 24.6297 19.0625 25.1125C19.0477 26.0242 18.6714 26.8927 18.0163 27.5269C17.3613 28.1611 16.4811 28.5091 15.5694 28.4944C14.6577 28.4796 13.7892 28.1033 13.155 27.4482C12.5208 26.7931 12.1727 25.9129 12.1875 25.0012ZM14.0625 25.0012C14.0625 25.3103 14.1541 25.6124 14.3258 25.8693C14.4975 26.1263 14.7415 26.3265 15.0271 26.4448C15.3126 26.5631 15.6267 26.594 15.9298 26.5337C16.2329 26.4734 16.5113 26.3246 16.7299 26.1061C16.9484 25.8876 17.0972 25.6092 17.1575 25.3061C17.2178 25.003 17.1868 24.6888 17.0686 24.4033C16.9503 24.1178 16.75 23.8738 16.4931 23.7021C16.2361 23.5304 15.934 23.4387 15.625 23.4387C15.2107 23.4391 14.8135 23.6038 14.5205 23.8968C14.2276 24.1897 14.0628 24.587 14.0625 25.0012ZM24.0625 16.5638H24.3738C24.7883 16.5638 25.1858 16.3992 25.479 16.1062C25.7723 15.8132 25.9372 15.4158 25.9375 15.0013V13.7513C25.9375 13.3367 25.7729 12.9392 25.4799 12.646C25.1869 12.3527 24.7895 12.1878 24.375 12.1875H24.0625V16.5638ZM4.0625 13.7513V15.0013C4.06316 15.4153 4.22803 15.8122 4.52095 16.1049C4.81387 16.3976 5.21092 16.5622 5.625 16.5625H5.9375V12.1875H5.625C5.21048 12.1878 4.81306 12.3527 4.52007 12.646C4.22708 12.9392 4.0625 13.3367 4.0625 13.7513Z" fill="#474747"/>
</g>
<defs>
<clipPath id="clip0_683_440">
<rect width="30" height="30" fill="white"/>
</clipPath>
</defs>
</svg>
