<svg width="247" height="115" viewBox="0 0 247 115" fill="none" xmlns="http://www.w3.org/2000/svg">
<path d="M8.90038 99.1037L13.8633 83.0939L18.0332 83.0939L11.0059 103L8.23046 103L8.90038 99.1037ZM4.32031 83.0939L9.25585 99.1037L9.96679 103L7.16405 103L0.16406 83.0939L4.32031 83.0939ZM24.4787 88.2072L24.4787 103L20.8556 103L20.8556 88.2072L24.4787 88.2072ZM20.6095 84.3381C20.6095 83.8003 20.7918 83.3537 21.1564 82.9982C21.5301 82.6427 22.0314 82.465 22.6603 82.465C23.2892 82.465 23.786 82.6427 24.1505 82.9982C24.5242 83.3537 24.7111 83.8003 24.7111 84.3381C24.7111 84.8667 24.5242 85.3088 24.1505 85.6642C23.786 86.0197 23.2892 86.1974 22.6603 86.1974C22.0314 86.1974 21.5301 86.0197 21.1564 85.6642C20.7918 85.3088 20.6095 84.8667 20.6095 84.3381ZM36.8987 98.9533C36.8987 98.6434 36.8167 98.3654 36.6526 98.1193C36.4886 97.8732 36.1787 97.6499 35.723 97.4494C35.2763 97.2397 34.6201 97.0438 33.7542 96.8615C32.9886 96.6974 32.2822 96.4923 31.6351 96.2463C30.9879 96.0002 30.4319 95.7039 29.9671 95.3576C29.5023 95.0021 29.1377 94.5874 28.8734 94.1134C28.6181 93.6304 28.4905 93.0744 28.4905 92.4455C28.4905 91.8348 28.6227 91.2606 28.887 90.7228C29.1513 90.1759 29.5342 89.6974 30.0355 89.2873C30.5368 88.868 31.1474 88.5399 31.8675 88.3029C32.5875 88.0568 33.3987 87.9338 34.3011 87.9338C35.5589 87.9338 36.639 88.1388 37.5413 88.549C38.4528 88.9591 39.15 89.5242 39.6331 90.2443C40.1162 90.9552 40.3577 91.7573 40.3577 92.6505L36.7484 92.6505C36.7484 92.2586 36.6572 91.9032 36.4749 91.5841C36.3017 91.2651 36.0329 91.0099 35.6683 90.8185C35.3037 90.618 34.8434 90.5177 34.2874 90.5177C33.7861 90.5177 33.3623 90.5998 33.0159 90.7638C32.6787 90.9279 32.4235 91.1421 32.2503 91.4064C32.0771 91.6707 31.9905 91.9624 31.9905 92.2814C31.9905 92.5184 32.0361 92.7326 32.1273 92.924C32.2275 93.1063 32.387 93.2749 32.6058 93.4298C32.8245 93.5848 33.1207 93.7261 33.4944 93.8537C33.8773 93.9813 34.3467 94.1043 34.9027 94.2228C36.0055 94.4416 36.9671 94.7332 37.7874 95.0978C38.6168 95.4533 39.264 95.9272 39.7288 96.5197C40.1937 97.1121 40.4261 97.8686 40.4261 98.7892C40.4261 99.4455 40.2848 100.047 40.0023 100.594C39.7197 101.132 39.3095 101.601 38.7718 102.002C38.234 102.403 37.5915 102.718 36.8441 102.945C36.0967 103.164 35.2536 103.274 34.3148 103.274C32.9567 103.274 31.8082 103.032 30.8694 102.549C29.9306 102.057 29.2197 101.437 28.7366 100.69C28.2536 99.9331 28.012 99.1493 28.012 98.3381L31.471 98.3381C31.4984 98.9123 31.6533 99.3726 31.9359 99.7189C32.2184 100.065 32.5739 100.316 33.0023 100.471C33.4398 100.617 33.9 100.69 34.3831 100.69C34.93 100.69 35.3903 100.617 35.764 100.471C36.1377 100.316 36.4202 100.111 36.6116 99.8556C36.803 99.5913 36.8987 99.2905 36.8987 98.9533ZM52.8188 99.4865L52.8188 88.2072L56.4555 88.2072L56.4555 103L53.0376 103L52.8188 99.4865ZM53.2837 96.424L54.4048 96.3966C54.4048 97.3901 54.2954 98.3061 54.0766 99.1447C53.8579 99.9832 53.5161 100.712 53.0512 101.332C52.5955 101.943 52.0167 102.421 51.3149 102.768C50.6131 103.105 49.7837 103.274 48.8266 103.274C48.0975 103.274 47.4321 103.173 46.8305 102.973C46.229 102.763 45.7094 102.44 45.2719 102.002C44.8436 101.555 44.5109 100.986 44.2739 100.293C44.0369 99.5913 43.9184 98.7482 43.9184 97.7638L43.9184 88.2072L47.5278 88.2072L47.5278 97.7912C47.5278 98.2834 47.5825 98.6935 47.6919 99.0216C47.8104 99.3498 47.9699 99.6186 48.1704 99.8283C48.38 100.029 48.6216 100.175 48.895 100.266C49.1775 100.348 49.4783 100.389 49.7973 100.389C50.6723 100.389 51.3605 100.216 51.8618 99.8693C52.3722 99.5138 52.7368 99.0399 52.9555 98.4474C53.1743 97.8459 53.2837 97.1714 53.2837 96.424ZM66.7155 103L62.4225 103L62.4498 100.047L66.7155 100.047C67.873 100.047 68.8437 99.7918 69.6276 99.2814C70.4114 98.7619 71.0039 98.019 71.4049 97.0529C71.806 96.0776 72.0065 94.9109 72.0065 93.5529L72.0065 92.5275C72.0065 91.4793 71.8925 90.5542 71.6647 89.7521C71.4368 88.95 71.0996 88.2755 70.653 87.7287C70.2155 87.1818 69.6731 86.7671 69.026 86.4845C68.3789 86.202 67.636 86.0607 66.7975 86.0607L62.3405 86.0607L62.3405 83.0939L66.7975 83.0939C68.1282 83.0939 69.3405 83.3172 70.4342 83.7638C71.5371 84.2104 72.4896 84.853 73.2916 85.6915C74.1028 86.521 74.7226 87.5145 75.151 88.672C75.5885 89.8296 75.8073 91.1238 75.8073 92.5548L75.8073 93.5529C75.8073 94.9747 75.5885 96.269 75.151 97.4357C74.7226 98.5932 74.1028 99.5867 73.2916 100.416C72.4895 101.246 71.5325 101.884 70.4205 102.33C69.3086 102.777 68.0735 103 66.7155 103ZM64.528 83.0939L64.528 103L60.7682 103L60.7682 83.0939L64.528 83.0939ZM87.7215 99.8556L87.7215 93.0333C87.7215 92.532 87.6349 92.0991 87.4617 91.7345C87.2885 91.3699 87.0242 91.0874 86.6687 90.8868C86.3133 90.6863 85.8621 90.5861 85.3152 90.5861C84.8322 90.5861 84.4083 90.6681 84.0437 90.8322C83.6883 90.9962 83.4148 91.2286 83.2234 91.5294C83.032 91.8211 82.9363 92.1583 82.9363 92.5411L79.3133 92.5411C79.3133 91.9305 79.4591 91.3517 79.7508 90.8048C80.0424 90.2488 80.4572 89.7566 80.9949 89.3283C81.5418 88.8908 82.1935 88.549 82.95 88.3029C83.7156 88.0568 84.5724 87.9337 85.5203 87.9337C86.6414 87.9337 87.6394 88.1251 88.5144 88.5079C89.3986 88.8816 90.0913 89.4467 90.5926 90.2032C91.103 90.9598 91.3582 91.9122 91.3582 93.0607L91.3582 99.5138C91.3582 100.252 91.4038 100.886 91.4949 101.414C91.5952 101.934 91.741 102.385 91.9324 102.768L91.9324 103L88.2547 103C88.0815 102.626 87.9493 102.152 87.8582 101.578C87.767 100.995 87.7215 100.421 87.7215 99.8556ZM88.2273 93.9904L88.2547 96.1368L85.9715 96.1368C85.4064 96.1368 84.9096 96.1961 84.4812 96.3146C84.0529 96.424 83.7019 96.588 83.4285 96.8068C83.1551 97.0164 82.95 97.2716 82.8133 97.5724C82.6766 97.8641 82.6082 98.1967 82.6082 98.5704C82.6082 98.935 82.6902 99.2632 82.8543 99.5548C83.0275 99.8465 83.2736 100.079 83.5926 100.252C83.9207 100.416 84.3035 100.498 84.741 100.498C85.379 100.498 85.935 100.371 86.409 100.115C86.8829 99.851 87.2521 99.532 87.5164 99.1583C87.7807 98.7846 87.922 98.4292 87.9402 98.0919L88.9793 99.6505C88.8517 100.024 88.6603 100.421 88.4051 100.84C88.1499 101.259 87.8217 101.651 87.4207 102.016C87.0196 102.38 86.5366 102.681 85.9715 102.918C85.4064 103.155 84.7501 103.274 84.0027 103.274C83.0457 103.274 82.1889 103.082 81.4324 102.699C80.6759 102.317 80.0789 101.792 79.6414 101.127C79.2039 100.462 78.9851 99.7052 78.9851 98.8576C78.9851 98.0737 79.131 97.381 79.4226 96.7794C79.7143 96.1779 80.1473 95.672 80.7215 95.2618C81.2957 94.8426 82.0066 94.5281 82.8543 94.3185C83.7111 94.0997 84.6909 93.9904 85.7937 93.9904L88.2273 93.9904ZM102.452 88.2071L102.452 90.8048L93.9755 90.8048L93.9755 88.2072L102.452 88.2071ZM96.2451 84.5704L99.8681 84.5704L99.8681 98.7345C99.8681 99.172 99.9274 99.5092 100.046 99.7462C100.164 99.9832 100.342 100.143 100.579 100.225C100.816 100.307 101.099 100.348 101.427 100.348C101.664 100.348 101.882 100.334 102.083 100.307C102.283 100.279 102.452 100.252 102.589 100.225L102.602 102.932C102.302 103.032 101.96 103.114 101.577 103.178C101.203 103.242 100.78 103.274 100.306 103.274C99.4944 103.274 98.7835 103.137 98.1728 102.863C97.5621 102.581 97.0882 102.13 96.7509 101.51C96.4137 100.881 96.2451 100.052 96.2451 99.0216L96.2451 84.5704ZM113.847 99.8556L113.847 93.0333C113.847 92.532 113.76 92.0991 113.587 91.7345C113.414 91.3699 113.15 91.0873 112.794 90.8868C112.439 90.6863 111.987 90.586 111.441 90.586C110.957 90.586 110.534 90.6681 110.169 90.8321C109.814 90.9962 109.54 91.2286 109.349 91.5294C109.157 91.8211 109.062 92.1583 109.062 92.5411L105.439 92.5411C105.439 91.9305 105.584 91.3517 105.876 90.8048C106.168 90.2488 106.582 89.7566 107.12 89.3282C107.667 88.8907 108.319 88.5489 109.075 88.3028C109.841 88.0568 110.698 87.9337 111.646 87.9337C112.767 87.9337 113.765 88.1251 114.64 88.5079C115.524 88.8816 116.217 89.4467 116.718 90.2032C117.228 90.9597 117.484 91.9122 117.484 93.0607L117.484 99.5138C117.484 100.252 117.529 100.886 117.62 101.414C117.72 101.934 117.866 102.385 118.058 102.768L118.058 103L114.38 103C114.207 102.626 114.075 102.152 113.984 101.578C113.892 100.995 113.847 100.421 113.847 99.8556ZM114.353 93.9903L114.38 96.1368L112.097 96.1368C111.532 96.1368 111.035 96.1961 110.607 96.3146C110.178 96.4239 109.827 96.588 109.554 96.8068C109.28 97.0164 109.075 97.2716 108.939 97.5724C108.802 97.864 108.734 98.1967 108.734 98.5704C108.734 98.935 108.816 99.2631 108.98 99.5548C109.153 99.8465 109.399 100.079 109.718 100.252C110.046 100.416 110.429 100.498 110.866 100.498C111.504 100.498 112.06 100.371 112.534 100.115C113.008 99.851 113.377 99.532 113.642 99.1583C113.906 98.7846 114.047 98.4291 114.066 98.0919L115.105 99.6505C114.977 100.024 114.786 100.421 114.53 100.84C114.275 101.259 113.947 101.651 113.546 102.016C113.145 102.38 112.662 102.681 112.097 102.918C111.532 103.155 110.875 103.274 110.128 103.274C109.171 103.274 108.314 103.082 107.558 102.699C106.801 102.317 106.204 101.792 105.767 101.127C105.329 100.462 105.11 99.7052 105.11 98.8575C105.11 98.0737 105.256 97.381 105.548 96.7794C105.84 96.1778 106.273 95.672 106.847 95.2618C107.421 94.8426 108.132 94.5281 108.98 94.3185C109.836 94.0997 110.816 93.9903 111.919 93.9903L114.353 93.9903Z" fill="#09427D"/>
<line y1="-1.71636" x2="22.3822" y2="-1.71636" transform="matrix(0.806584 -0.591119 0.542334 0.840163 17 76.0768)" stroke="#09427D" stroke-width="3.43273"/>
<g clip-path="url(#clip0_717_314)">
<path d="M88.4438 34.414H85.3988C84.7074 31.1323 83.6335 28.0094 82.1772 25.1159L84.3396 22.5223C85.2222 21.4637 85.7077 20.0698 85.7077 18.5701C85.7077 17.0704 85.2222 15.6766 84.3396 14.618L80.8974 10.4894C80.0148 9.43078 78.8527 8.84854 77.6023 8.84854C76.3519 8.84854 75.1898 9.43078 74.3072 10.4894L72.1595 13.1006C69.7322 11.3539 67.1432 10.0659 64.4071 9.2367V5.58448C64.4071 2.51451 62.3182 0.00912476 59.7586 0.00912476H54.9042C52.3446 0.00912476 50.2557 2.51451 50.2557 5.58448V9.2367C47.5196 10.0659 44.9159 11.3539 42.5034 13.1006L40.341 10.507C39.4583 9.44842 38.2962 8.86618 37.0458 8.86618C35.7955 8.86618 34.6333 9.44842 33.7507 10.507L30.2938 14.6356C29.4112 15.6942 28.9257 17.0881 28.9257 18.5878C28.9257 20.0875 29.4112 21.4813 30.2938 22.5399L32.4562 25.1159C30.9999 28.0271 29.926 31.1323 29.2347 34.414H26.1896C23.63 34.414 21.5411 36.9194 21.5411 39.9894V45.8118C21.5411 48.8817 23.63 51.3871 26.1896 51.3871H29.2347C29.926 54.6688 30.9999 57.7917 32.4562 60.6853L30.2938 63.2789C29.4112 64.3375 28.9257 65.7313 28.9257 67.231C28.9257 68.7307 29.4112 70.1246 30.2938 71.1832L33.736 75.3118C34.6186 76.3704 35.7808 76.9526 37.0311 76.9526C38.2815 76.9526 39.4436 76.3704 40.3263 75.3118L42.4887 72.7182C44.9159 74.4649 47.5049 75.7528 50.241 76.5821V80.2343C50.241 83.3043 52.3299 85.8097 54.8895 85.8097H59.7439C62.3035 85.8097 64.3924 83.3043 64.3924 80.2343V76.5821C67.1285 75.7528 69.7322 74.4649 72.1447 72.7182L74.3072 75.3118C75.1898 76.3704 76.3519 76.9526 77.6023 76.9526C78.8527 76.9526 80.0148 76.3704 80.8974 75.3118L84.3396 71.1832C85.2222 70.1246 85.7077 68.7307 85.7077 67.231C85.7077 65.7313 85.2222 64.3375 84.3396 63.2789L82.1772 60.7206C83.6335 57.8094 84.7074 54.7041 85.3988 51.4224H88.4438C91.0034 51.4224 93.0923 48.917 93.0923 45.847V40.0247C93.0923 36.9194 91.0034 34.414 88.4438 34.414ZM89.5618 45.8294C89.5618 46.5704 89.0616 47.1703 88.4438 47.1703H83.9866C83.1481 47.1703 82.4126 47.8761 82.2508 48.8817C81.6035 52.8162 80.3237 56.5037 78.4702 59.8384C77.9995 60.6853 78.0877 61.7968 78.6908 62.5202L81.8536 66.3136C82.0595 66.5606 82.1772 66.9134 82.1772 67.2663C82.1772 67.6192 82.0595 67.972 81.8536 68.2191L78.4114 72.3476C78.2054 72.5947 77.9112 72.7358 77.617 72.7358C77.3228 72.7358 77.0286 72.5947 76.8226 72.3476L73.6599 68.5543C73.0715 67.8485 72.13 67.725 71.4239 68.2896C68.6437 70.5304 65.5692 72.0477 62.2888 72.824C61.465 73.0181 60.8619 73.8826 60.8619 74.906V80.252C60.8619 80.993 60.3618 81.5929 59.7439 81.5929H54.8895C54.2717 81.5929 53.7715 80.993 53.7715 80.252V74.906C53.7715 73.9003 53.1831 73.0181 52.3446 72.824C49.0642 72.0477 45.9897 70.5127 43.2095 68.2896C42.9153 68.0426 42.5622 67.9368 42.2239 67.9368C41.7679 67.9368 41.3118 68.1485 40.9735 68.5543L37.8108 72.3476C37.6048 72.5947 37.3106 72.7358 37.0164 72.7358C36.7222 72.7358 36.428 72.5947 36.2221 72.3476L32.7798 68.2191C32.5739 67.972 32.4562 67.6192 32.4562 67.2663C32.4562 66.9134 32.5739 66.5606 32.7798 66.3136L35.9426 62.5202C36.531 61.8145 36.634 60.6853 36.1632 59.8384C34.295 56.5037 33.0299 52.8162 32.3827 48.8817C32.2209 47.8937 31.5 47.1703 30.6468 47.1703H26.1896C25.5718 47.1703 25.0716 46.5704 25.0716 45.8294V40.007C25.0716 39.266 25.5718 38.6661 26.1896 38.6661H30.6468C31.4853 38.6661 32.2209 37.9604 32.3827 36.9547C33.0299 33.0202 34.3097 29.3327 36.1632 25.9981C36.634 25.1512 36.5457 24.0396 35.9426 23.3162L32.7798 19.5229C32.5739 19.2759 32.4562 18.923 32.4562 18.5701C32.4562 18.2173 32.5739 17.8644 32.7798 17.6174L36.2221 13.4888C36.428 13.2418 36.7222 13.1006 37.0164 13.1006C37.3106 13.1006 37.6048 13.2418 37.8108 13.4888L40.9735 17.2822C41.5619 17.9879 42.5034 18.1114 43.2095 17.5468C45.9897 15.3061 49.0642 13.7887 52.3446 13.0124C53.1684 12.8183 53.7715 11.9538 53.7715 10.9305V5.58448C53.7715 4.84346 54.2717 4.24357 54.8895 4.24357H59.7439C60.3618 4.24357 60.8619 4.84346 60.8619 5.58448V10.9305C60.8619 11.9362 61.4503 12.8183 62.2888 13.0124C65.5692 13.7887 68.6437 15.3237 71.4239 17.5468C72.13 18.1114 73.0568 18.0055 73.6599 17.2822L76.8226 13.4888C77.0286 13.2418 77.3228 13.1006 77.617 13.1006C77.9112 13.1006 78.2054 13.2418 78.4114 13.4888L81.8536 17.6174C82.0595 17.8644 82.1772 18.2173 82.1772 18.5701C82.1772 18.923 82.0595 19.2759 81.8536 19.5229L78.6908 23.3162C78.1024 24.022 77.9995 25.1512 78.4702 25.9981C80.3384 29.3327 81.6035 33.0202 82.2508 36.9547C82.4126 37.9427 83.1334 38.6661 83.9866 38.6661H88.4438C89.0616 38.6661 89.5618 39.266 89.5618 40.007V45.8294Z" fill="#09427D"/>
</g>
<path d="M75.4602 34.2839C80.2397 47.528 73.7579 62.2045 61.1127 67.125C48.4675 72.0456 34.2934 65.4067 29.514 52.1626C24.7345 38.9184 31.2164 24.2419 43.8616 19.3214C56.5068 14.4008 70.6808 21.0397 75.4602 34.2839Z" fill="white" stroke="#09427D" stroke-width="3.43273"/>
<path d="M45.333 39.1598H40.4414V45.9836L45.333 43.709V39.1598Z" fill="#0277BD"/>
<path d="M40.4414 51.1016H45.333V44.2777L40.4414 46.5523V51.1016Z" fill="#0277BD"/>
<path d="M51.3117 35.1793H46.42V43.168L51.3117 40.8658V35.1793Z" fill="#039BE5"/>
<path d="M46.42 51.0788H51.3117V41.4345L46.42 43.7091V51.0788Z" fill="#039BE5"/>
<path d="M52.3988 51.0788H57.2904V38.5912L52.3988 40.8658V51.0788Z" fill="#29B6F6"/>
<path d="M57.2904 31.7674H52.3988V40.2972L57.2904 38.0226V31.7674Z" fill="#29B6F6"/>
<path d="M58.3774 51.1016H63.2691V40.8658L58.3774 38.5912V51.1016Z" fill="#01579B"/>
<path d="M63.2691 33.4734H58.3774V38.0226L63.2691 40.2972V33.4734Z" fill="#01579B"/>
<rect x="58" y="73" width="3" height="30" fill="white"/>
<defs>
<clipPath id="clip0_717_314">
<rect width="32.4005" height="85.8182" fill="white" transform="translate(60.6917)"/>
</clipPath>
</defs>
</svg>
