<svg width="30" height="30" viewBox="0 0 30 30" fill="none" xmlns="http://www.w3.org/2000/svg">
<g clip-path="url(#clip0_711_281)">
<path d="M4.80122 16.4063H21.0935C21.8701 16.4063 22.4997 15.7766 22.4997 15C22.4997 14.2234 21.8701 13.5938 21.0935 13.5938H4.80122L6.61939 11.7756C7.16858 11.2264 7.16858 10.3361 6.61939 9.78689C6.0703 9.2377 5.17987 9.2377 4.63069 9.78689L0.412151 14.0055C0.379245 14.0384 0.34812 14.0729 0.318683 14.1089C0.305839 14.1246 0.294683 14.1412 0.282589 14.1572C0.26712 14.1778 0.251183 14.198 0.236839 14.2195C0.223714 14.239 0.212371 14.2594 0.200371 14.2795C0.18884 14.2988 0.176746 14.3176 0.166152 14.3375C0.15509 14.3581 0.145809 14.3793 0.135871 14.4003C0.126121 14.4208 0.115903 14.4411 0.107184 14.4621C0.0987464 14.4826 0.091809 14.5035 0.0844028 14.5243C0.0762466 14.5468 0.0676216 14.569 0.0606842 14.592C0.054403 14.6128 0.0498093 14.6339 0.0445593 14.655C0.0386531 14.6784 0.0320906 14.7016 0.0274031 14.7254C0.0226219 14.7497 0.0197157 14.7743 0.016247 14.7987C0.013247 14.8196 0.00921576 14.8403 0.00715328 14.8614C0.0026533 14.9068 0.000309569 14.9525 0.00021582 14.998C0.00021582 14.9987 0.00012207 14.9994 0.00012207 15.0001C0.00012207 15.0008 0.00021582 15.0015 0.00021582 15.0022C0.000309569 15.0478 0.0026533 15.0934 0.00715328 15.1389C0.00921576 15.1598 0.0131532 15.1801 0.0160595 15.2008C0.0196219 15.2256 0.0225282 15.2503 0.0274031 15.2749C0.0320906 15.2985 0.0385593 15.3214 0.0444655 15.3445C0.0498093 15.3658 0.0544967 15.3873 0.0608717 15.4084C0.0677154 15.431 0.0762466 15.4528 0.0841215 15.4749C0.0917152 15.4961 0.0986527 15.5174 0.107278 15.5382C0.115809 15.5589 0.12584 15.5786 0.135402 15.5988C0.145527 15.6203 0.15509 15.6419 0.16634 15.663C0.176652 15.6822 0.188371 15.7005 0.199527 15.7192C0.211808 15.7399 0.223527 15.7608 0.237027 15.7809C0.250714 15.8015 0.265995 15.8207 0.280714 15.8405C0.293464 15.8574 0.305276 15.875 0.31887 15.8915C0.346901 15.9256 0.37662 15.9583 0.407651 15.9897C0.409151 15.9912 0.410369 15.9929 0.411869 15.9944L4.63059 20.2132C4.90528 20.4878 5.26509 20.6252 5.62499 20.6252C5.9848 20.6251 6.3448 20.4878 6.6193 20.2133C7.16848 19.6641 7.16848 18.7738 6.61939 18.2246L4.80122 16.4063Z" fill="#474747"/>
<path d="M28.5938 2.34375H10.7814C10.0047 2.34375 9.37512 2.97337 9.37512 3.74999V9.37496C9.37512 10.1516 10.0047 10.7812 10.7814 10.7812C11.558 10.7812 12.1876 10.1516 12.1876 9.37496V5.15623H27.1875V24.8437H12.1876V20.6249C12.1876 19.8483 11.558 19.2186 10.7814 19.2186C10.0047 19.2186 9.37512 19.8483 9.37512 20.6249V26.2499C9.37512 27.0266 10.0047 27.6562 10.7814 27.6562H28.5938C29.3704 27.6562 30 27.0266 30 26.2499V3.74999C30 2.97337 29.3704 2.34375 28.5938 2.34375Z" fill="#474747"/>
</g>
<defs>
<clipPath id="clip0_711_281">
<rect width="30" height="30" fill="white"/>
</clipPath>
</defs>
</svg>
