<svg width="22" height="22" viewBox="0 0 22 22" fill="none" xmlns="http://www.w3.org/2000/svg">
<g clip-path="url(#clip0_720_261)">
<path d="M5 12V16C5 16.5523 5.44773 17 6 17H10C10.2652 17 10.5195 16.8946 10.7071 16.7071L21.707 5.70707C22.0975 5.31653 22.0975 4.6834 21.707 4.29287L17.707 0.292867C17.5196 0.1054 17.2652 0 17 0C16.7348 0 16.4804 0.1054 16.2929 0.292933L5.29293 11.2929C5.10533 11.4804 5 11.7348 5 12ZM7 12.4142L17 2.4142L19.5858 5L9.5858 15H7V12.4142Z" fill="black"/>
<path d="M21 10.0001C20.4477 10.0001 20 10.4478 20 11.0001V20H2V2H11C11.5523 2 12 1.55227 12 1C12 0.447733 11.5523 0 11 0H1C0.447733 0 0 0.447733 0 1V21C0 21.5523 0.447733 22 1 22H21C21.5523 22 22 21.5523 22 21V11.0001C22 10.4477 21.5523 10.0001 21 10.0001Z" fill="black"/>
</g>
<defs>
<clipPath id="clip0_720_261">
<rect width="22" height="22" fill="white"/>
</clipPath>
</defs>
</svg>
