<svg width="30" height="30" viewBox="0 0 30 30" fill="none" xmlns="http://www.w3.org/2000/svg">
<path d="M7.5 7.5C7.5 6.80965 8.05965 6.25 8.75 6.25H21.25C21.9404 6.25 22.5 6.80965 22.5 7.5C22.5 8.19035 21.9404 8.75 21.25 8.75H8.75C8.05964 8.75 7.5 8.19035 7.5 7.5Z" fill="#474747"/>
<path d="M7.5 12.5C7.5 11.8096 8.05965 11.25 8.75 11.25H21.25C21.9404 11.25 22.5 11.8096 22.5 12.5C22.5 13.1904 21.9404 13.75 21.25 13.75H8.75C8.05964 13.75 7.5 13.1904 7.5 12.5Z" fill="#474747"/>
<path d="M8.75 16.25C8.05965 16.25 7.5 16.8096 7.5 17.5C7.5 18.1904 8.05964 18.75 8.75 18.75H21.25C21.9404 18.75 22.5 18.1904 22.5 17.5C22.5 16.8096 21.9404 16.25 21.25 16.25H8.75Z" fill="#474747"/>
<path d="M7.5 22.5C7.5 21.8096 8.05965 21.25 8.75 21.25H13.75C14.4404 21.25 15 21.8096 15 22.5C15 23.1904 14.4404 23.75 13.75 23.75H8.75C8.05965 23.75 7.5 23.1904 7.5 22.5Z" fill="#474747"/>
<path fill-rule="evenodd" clip-rule="evenodd" d="M2.5 5C2.5 2.92894 4.17894 1.25 6.25 1.25H23.75C25.8211 1.25 27.5 2.92894 27.5 5V25C27.5 27.0711 25.8211 28.75 23.75 28.75H6.25C4.17894 28.75 2.5 27.0711 2.5 25V5ZM6.25 3.75H23.75C24.4404 3.75 25 4.30964 25 5V25C25 25.6904 24.4404 26.25 23.75 26.25H6.25C5.55965 26.25 5 25.6904 5 25V5C5 4.30965 5.55964 3.75 6.25 3.75Z" fill="#474747"/>
</svg>
